<?xml version="1.0" encoding="UTF-8" standalone="no"?>
<svg
   xmlns:dc="http://purl.org/dc/elements/1.1/"
   xmlns:cc="http://creativecommons.org/ns#"
   xmlns:rdf="http://www.w3.org/1999/02/22-rdf-syntax-ns#"
   xmlns:svg="http://www.w3.org/2000/svg"
   xmlns="http://www.w3.org/2000/svg"
   viewBox="0 0 540 405"
   height="405"
   width="540"
   xml:space="preserve"
   version="1.1"
   id="svg2"><metadata
     id="metadata8"><rdf:RDF><cc:Work
         rdf:about=""><dc:format>image/svg+xml</dc:format><dc:type
           rdf:resource="http://purl.org/dc/dcmitype/StillImage" /></cc:Work></rdf:RDF></metadata><defs
     id="defs6"><clipPath
       id="clipPath72"
       clipPathUnits="userSpaceOnUse"><path
         id="path74"
         d="m 59.04,73.44 342.72,0 0,191.52 -342.72,0 0,-191.52 z" /></clipPath></defs><g
     transform="matrix(1.25,0,0,-1.25,0,405)"
     id="g10"><g
       id="g12" /><g
       id="g14"><path
         id="path16"
         style="fill:none;stroke:#000000;stroke-width:0.75;stroke-linecap:round;stroke-linejoin:round;stroke-miterlimit:10;stroke-dasharray:none;stroke-opacity:1"
         d="m 67.46,73.44 325.88,0" /><path
         id="path18"
         style="fill:none;stroke:#000000;stroke-width:0.75;stroke-linecap:round;stroke-linejoin:round;stroke-miterlimit:10;stroke-dasharray:none;stroke-opacity:1"
         d="m 67.46,73.44 0,-7.2" /><path
         id="path20"
         style="fill:none;stroke:#000000;stroke-width:0.75;stroke-linecap:round;stroke-linejoin:round;stroke-miterlimit:10;stroke-dasharray:none;stroke-opacity:1"
         d="m 121.77,73.44 0,-7.2" /><path
         id="path22"
         style="fill:none;stroke:#000000;stroke-width:0.75;stroke-linecap:round;stroke-linejoin:round;stroke-miterlimit:10;stroke-dasharray:none;stroke-opacity:1"
         d="m 176.09,73.44 0,-7.2" /><path
         id="path24"
         style="fill:none;stroke:#000000;stroke-width:0.75;stroke-linecap:round;stroke-linejoin:round;stroke-miterlimit:10;stroke-dasharray:none;stroke-opacity:1"
         d="m 230.4,73.44 0,-7.2" /><path
         id="path26"
         style="fill:none;stroke:#000000;stroke-width:0.75;stroke-linecap:round;stroke-linejoin:round;stroke-miterlimit:10;stroke-dasharray:none;stroke-opacity:1"
         d="m 284.71,73.44 0,-7.2" /><path
         id="path28"
         style="fill:none;stroke:#000000;stroke-width:0.75;stroke-linecap:round;stroke-linejoin:round;stroke-miterlimit:10;stroke-dasharray:none;stroke-opacity:1"
         d="m 339.03,73.44 0,-7.2" /><path
         id="path30"
         style="fill:none;stroke:#000000;stroke-width:0.75;stroke-linecap:round;stroke-linejoin:round;stroke-miterlimit:10;stroke-dasharray:none;stroke-opacity:1"
         d="m 393.34,73.44 0,-7.2" /><text
         id="text32"
         style="font-variant:normal;font-weight:normal;font-size:12px;font-family:Helvetica;-inkscape-font-specification:Helvetica;writing-mode:lr-tb;fill:#000000;fill-opacity:1;fill-rule:nonzero;stroke:none"
         transform="matrix(1,0,0,-1,55.61,47.52)"><tspan
           id="tspan34"
           y="0"
           x="0 7.0079999 13.68 17.016001">−1.5</tspan></text>
<text
         id="text36"
         style="font-variant:normal;font-weight:normal;font-size:12px;font-family:Helvetica;-inkscape-font-specification:Helvetica;writing-mode:lr-tb;fill:#000000;fill-opacity:1;fill-rule:nonzero;stroke:none"
         transform="matrix(1,0,0,-1,109.93,47.52)"><tspan
           id="tspan38"
           y="0"
           x="0 7.0079999 13.68 17.016001">−1.0</tspan></text>
<text
         id="text40"
         style="font-variant:normal;font-weight:normal;font-size:12px;font-family:Helvetica;-inkscape-font-specification:Helvetica;writing-mode:lr-tb;fill:#000000;fill-opacity:1;fill-rule:nonzero;stroke:none"
         transform="matrix(1,0,0,-1,164.24,47.52)"><tspan
           id="tspan42"
           y="0"
           x="0 7.0079999 13.68 17.016001">−0.5</tspan></text>
<text
         id="text44"
         style="font-variant:normal;font-weight:normal;font-size:12px;font-family:Helvetica;-inkscape-font-specification:Helvetica;writing-mode:lr-tb;fill:#000000;fill-opacity:1;fill-rule:nonzero;stroke:none"
         transform="matrix(1,0,0,-1,222.06,47.52)"><tspan
           id="tspan46"
           y="0"
           x="0 6.6719999 10.008">0.0</tspan></text>
<text
         id="text48"
         style="font-variant:normal;font-weight:normal;font-size:12px;font-family:Helvetica;-inkscape-font-specification:Helvetica;writing-mode:lr-tb;fill:#000000;fill-opacity:1;fill-rule:nonzero;stroke:none"
         transform="matrix(1,0,0,-1,276.37,47.52)"><tspan
           id="tspan50"
           y="0"
           x="0 6.6719999 10.008">0.5</tspan></text>
<text
         id="text52"
         style="font-variant:normal;font-weight:normal;font-size:12px;font-family:Helvetica;-inkscape-font-specification:Helvetica;writing-mode:lr-tb;fill:#000000;fill-opacity:1;fill-rule:nonzero;stroke:none"
         transform="matrix(1,0,0,-1,330.69,47.52)"><tspan
           id="tspan54"
           y="0"
           x="0 6.6719999 10.008">1.0</tspan></text>
<text
         id="text56"
         style="font-variant:normal;font-weight:normal;font-size:12px;font-family:Helvetica;-inkscape-font-specification:Helvetica;writing-mode:lr-tb;fill:#000000;fill-opacity:1;fill-rule:nonzero;stroke:none"
         transform="matrix(1,0,0,-1,385,47.52)"><tspan
           id="tspan58"
           y="0"
           x="0 6.6719999 10.008">1.5</tspan></text>
<path
         id="path60"
         style="fill:none;stroke:#000000;stroke-width:0.75;stroke-linecap:round;stroke-linejoin:round;stroke-miterlimit:10;stroke-dasharray:none;stroke-opacity:1"
         d="m 59.04,264.96 0,-191.52 342.72,0" /></g><g
       id="g62"><text
         id="text64"
         style="font-variant:normal;font-weight:normal;font-size:12px;font-family:Helvetica;-inkscape-font-specification:Helvetica;writing-mode:lr-tb;fill:#000000;fill-opacity:1;fill-rule:nonzero;stroke:none"
         transform="matrix(1,0,0,-1,186.56,18.72)"><tspan
           id="tspan66"
           y="0"
           x="0 9.9960003 16.667999 23.34 30.011999 33.348 42.012001 44.675999 48.012001 50.987999 57.66 61.655998 68.328003 75 81">Mean Difference</tspan></text>
</g><g
       id="g68"><g
         clip-path="url(#clipPath72)"
         id="g70"><path
           id="path76"
           style="fill:#000000;fill-opacity:1;fill-rule:nonzero;stroke:none"
           d="m 193.5,163.8 10.8,0 0,10.8 -10.8,0 0,-10.8 z" /><path
           id="path78"
           style="fill:none;stroke:#000000;stroke-width:0.75;stroke-linecap:round;stroke-linejoin:round;stroke-miterlimit:10;stroke-dasharray:2.25, 3.75;stroke-dashoffset:0;stroke-opacity:1"
           d="m 362.62,73.44 0,191.52" /><path
           id="path80"
           style="fill:none;stroke:#000000;stroke-width:0.75;stroke-linecap:round;stroke-linejoin:round;stroke-miterlimit:10;stroke-dasharray:2.25, 3.75;stroke-dashoffset:0;stroke-opacity:1"
           d="m 98.18,73.44 0,191.52" /><path
           id="path82"
           style="fill:none;stroke:#bebebe;stroke-width:0.75;stroke-linecap:round;stroke-linejoin:round;stroke-miterlimit:10;stroke-dasharray:2.25, 3.75;stroke-dashoffset:0;stroke-opacity:1"
           d="m 230.4,73.44 0,191.52" /><path
           id="path84"
           style="fill:none;stroke:#000000;stroke-width:2.25;stroke-linecap:round;stroke-linejoin:round;stroke-miterlimit:10;stroke-dasharray:none;stroke-opacity:1"
           d="m 123.72,169.2 150.36,0" /><path
           id="path86"
           style="fill:none;stroke:#000000;stroke-width:0.75;stroke-linecap:round;stroke-linejoin:round;stroke-miterlimit:10;stroke-dasharray:none;stroke-opacity:1"
           d="m 107.9,169.2 182,0" /></g></g><g
       id="g88"><text
         id="text90"
         style="font-variant:normal;font-weight:bold;font-size:12px;font-family:Helvetica;-inkscape-font-specification:Helvetica-Bold;writing-mode:lr-tb;fill:#000000;fill-opacity:1;fill-rule:nonzero;stroke:none"
         transform="matrix(1,0,0,-1,122.97,311.77)"><tspan
           id="tspan92"
           y="0"
           x="0 8.0039997 15.336 22.667999 26.004 32.436001 39.108002 42.444 49.116001 56.448002 63.119999 69.792 73.127998 80.459999 87.792 95.124001 102.456 109.788 116.46 119.796 126.804 133.476 136.812 143.48399 150.15601 156.828 160.164 166.836 174.168 181.5 184.836 191.508 194.84399 201.51601 208.188">Equivalence bounds −1.217 and 1.217</tspan></text>
<text
         id="text94"
         style="font-variant:normal;font-weight:bold;font-size:12px;font-family:Helvetica;-inkscape-font-specification:Helvetica-Bold;writing-mode:lr-tb;fill:#000000;fill-opacity:1;fill-rule:nonzero;stroke:none"
         transform="matrix(1,0,0,-1,161.09,297.37)"><tspan
           id="tspan96"
           y="0"
           x="0 9.9960003 16.667999 23.34 30.672001 34.007999 41.34 44.675999 48.672001 52.548 59.220001 63.888 70.559998 77.891998 84.564003 91.236 94.571999 101.58 104.916 111.924 118.596 121.932 128.604 135.276">Mean difference = −0.29 </tspan></text>
<text
         id="text98"
         style="font-variant:normal;font-weight:bold;font-size:12px;font-family:Helvetica;-inkscape-font-specification:Helvetica-Bold;writing-mode:lr-tb;fill:#000000;fill-opacity:1;fill-rule:nonzero;stroke:none"
         transform="matrix(1,0,0,-1,118.676,282.97)"><tspan
           id="tspan100"
           y="0"
           x="0 6.8520002 16.188 24.191999 31.044001 35.040001 38.375999 45.048 51.720001 62.388 65.723999 74.388 77.723999 81.059998 85.056 92.064003 98.736 102.072 108.744 115.416 122.088 126.084 132.756 136.092 142.76401 149.436 156.108 160.104 163.44 170.112 173.448 180.78 188.112 191.448 195.444 198.78 205.452 212.12399 219.45599 223.452">TOST: 90% CI [−0.982;0.402] significant </tspan></text>
<text
         id="text102"
         style="font-variant:normal;font-weight:bold;font-size:12px;font-family:Helvetica;-inkscape-font-specification:Helvetica-Bold;writing-mode:lr-tb;fill:#000000;fill-opacity:1;fill-rule:nonzero;stroke:none"
         transform="matrix(1,0,0,-1,105.266,268.57)"><tspan
           id="tspan104"
           y="0"
           x="0 8.6639996 17.327999 25.332001 32.183998 36.18 39.515999 46.188 52.860001 63.528 66.863998 75.528 78.863998 82.199997 86.195999 93.204002 99.875999 103.212 109.884 116.556 123.228 127.224 133.896 137.23199 143.90401 150.576 157.248 161.244 164.58 171.912 179.244 186.576 193.584 200.256 203.592 210.924 218.256 221.592 225.588 228.924 235.59599 242.26801 249.60001">NHST: 95% CI [−1.128;0.548] non−significant</tspan></text>
</g></g></svg>